HIERARCHY
ROOT Hips
{
	OFFSET 0.000000 0.000000 0.000000
	CHANNELS 6 Xposition Yposition Zposition Zrotation Yrotation Xrotation 
	JOINT LowerBack
	{
		OFFSET 0.000000 0.000000 0.000000
		CHANNELS 3 Zrotation Yrotation Xrotation
		JOINT Spine
		{
			OFFSET 0.028270 2.035590 -0.193380
			CHANNELS 3 Zrotation Yrotation Xrotation
			JOINT Spine1
			{
				OFFSET 0.056720 2.048850 -0.042750
				CHANNELS 3 Zrotation Yrotation Xrotation
				JOINT Neck
				{
					OFFSET 0.000000 0.000000 0.000000
					CHANNELS 3 Zrotation Yrotation Xrotation
					JOINT Neck1
					{
						OFFSET -0.054170 1.746240 0.172020
						CHANNELS 3 Zrotation Yrotation Xrotation
						JOINT Head
						{
							OFFSET 0.104070 1.761360 -0.123970
							CHANNELS 3 Zrotation Yrotation Xrotation
							End Site
							{
								OFFSET 0.000000 0.000000 0.000000
							}
						}
					}
				}
				JOINT LeftShoulder
				{
					OFFSET 0.000000 0.000000 0.000000
					CHANNELS 3 Zrotation Yrotation Xrotation
					JOINT LeftArm
					{
						OFFSET 3.362410 1.200890 -0.311210
						CHANNELS 3 Zrotation Yrotation Xrotation
						JOINT LeftForeArm
						{
							OFFSET 4.983000 -0.000000 -0.000000
							CHANNELS 3 Zrotation Yrotation Xrotation
							JOINT LeftHand
							{
								OFFSET 3.483560 -0.000000 -0.000000
								CHANNELS 3 Zrotation Yrotation Xrotation
								JOINT LeftFingerBase
								{
									OFFSET 0.000000 0.000000 0.000000
									CHANNELS 3 Zrotation Yrotation Xrotation
									JOINT LeftHandIndex1
									{
										OFFSET 0.715260 -0.000000 -0.000000
										CHANNELS 3 Zrotation Yrotation Xrotation
										End Site
										{
											OFFSET 0.000000 0.000000 0.000000
										}
									}
								}
								JOINT LThumb
								{
									OFFSET 0.000000 0.000000 0.000000
									CHANNELS 3 Zrotation Yrotation Xrotation
									End Site
									{
										OFFSET 0.000000 0.000000 0.000000
									}
								}
							}
						}
					}
				}
				JOINT RightShoulder
				{
					OFFSET 0.000000 0.000000 0.000000
					CHANNELS 3 Zrotation Yrotation Xrotation
					JOINT RightArm
					{
						OFFSET -3.136600 1.374050 -0.404650
						CHANNELS 3 Zrotation Yrotation Xrotation
						JOINT RightForeArm
						{
							OFFSET -5.241900 -0.000000 -0.000000
							CHANNELS 3 Zrotation Yrotation Xrotation
							JOINT RightHand
							{
								OFFSET -3.444170 -0.000000 -0.000000
								CHANNELS 3 Zrotation Yrotation Xrotation
								JOINT RightFingerBase
								{
									OFFSET 0.000000 0.000000 0.000000
									CHANNELS 3 Zrotation Yrotation Xrotation
									JOINT RightHandIndex1
									{
										OFFSET -0.622530 -0.000000 -0.000000
										CHANNELS 3 Zrotation Yrotation Xrotation
										End Site
										{
											OFFSET 0.000000 0.000000 0.000000
										}
									}
								}
								JOINT RThumb
								{
									OFFSET 0.000000 0.000000 0.000000
									CHANNELS 3 Zrotation Yrotation Xrotation
									End Site
									{
										OFFSET 0.000000 0.000000 0.000000
									}
								}
							}
						}
					}
				}
			}
		}
	}
}
}
MOTION
Frames: 18
Frame Time: 0.008333
3.474336 17.240048 0.814315 162.386529 -87.688526 -150.691521 0.322646 3.826560 -4.489148 0.471945 3.923120 -4.675524 1.366066 4.024460 -5.549300 -5.866007 6.099863 1.973520 -0.728488 -0.224331 2.745384 0.000000 0.000000 0.000000 0.355291 -2.940517 -4.026580 -91.502150 -19.839756 30.710264 179.383062 -54.822645 179.893742 5.573131 -9.784968 -0.534812 -0.010226 1.165081 -0.000000 0.000000 0.000000 0.000000 0.000000 0.000000 0.000000 -16.784388 12.728347 1.716342 -9.936416 73.690643 -106.014509 -3.862975 5.225101 -0.097022 -14.130708 12.489179 -1.653475 0.207214 -0.592444 -0.000000 0.000000 0.000000 0.000000 0.000000 0.000000 0.000000 
3.470676 17.238696 0.816019 162.082357 -87.865596 -150.299530 0.396706 3.873856 -4.271370 0.391877 3.959195 -4.882462 0.952267 4.108292 -6.580546 -5.511346 5.980531 2.432236 -0.772633 -0.237456 2.885938 0.000000 0.000000 0.000000 0.631275 -3.041987 -3.672257 -91.464023 -19.418298 30.709228 179.560613 -54.868944 179.894685 5.597417 -9.758493 -0.537655 -0.024026 1.175687 -0.000000 0.000000 0.000000 0.000000 0.000000 0.000000 0.000000 -16.679564 12.756627 -0.226254 4.520050 74.085543 -89.376667 -4.419292 7.626615 -0.097283 -13.333773 12.280417 -1.533675 0.181032 -0.598839 -0.000000 0.000000 0.000000 0.000000 0.000000 0.000000 0.000000 
3.467262 17.237196 0.818184 161.908928 -87.968606 -149.844845 0.580013 3.837520 -3.702873 0.281729 3.893906 -5.188505 0.302583 4.104148 -8.191738 -5.247169 5.907086 2.616108 -0.892597 -0.250013 2.952427 0.000000 0.000000 0.000000 1.083071 -2.470770 -3.317158 -91.426155 -18.735307 30.806512 179.813077 -54.660398 179.897375 5.616829 -9.733265 -0.540446 -0.044642 1.175911 -0.000000 0.000000 0.000000 0.000000 0.000000 0.000000 0.000000 -16.588079 11.983584 -2.634233 24.177567 74.830560 -66.737917 -6.341689 10.680405 -0.107149 -12.651680 11.738695 -1.391683 0.133243 -0.620122 -0.000000 0.000000 0.000000 0.000000 0.000000 0.000000 0.000000 
3.464132 17.235610 0.820692 161.811821 -87.847488 -149.396576 0.801786 3.469534 -3.030233 0.252313 3.493491 -5.379926 -0.172904 3.727008 -9.306328 -5.236863 5.899240 2.070957 -1.146790 -0.253335 2.797043 0.000000 0.000000 0.000000 1.563484 -0.922852 -3.279947 -91.325123 -18.049225 30.729298 179.900034 -53.981582 179.900089 5.647218 -9.723280 -0.542744 -0.053904 1.151584 -0.000000 0.000000 0.000000 0.000000 0.000000 0.000000 0.000000 -15.873893 9.985067 -3.437024 42.062510 77.784314 -46.391611 -8.947061 13.276188 -0.126656 -12.155560 10.897833 -1.243894 0.064606 -0.664225 0.000000 0.000000 0.000000 0.000000 0.000000 0.000000 0.000000 
3.461323 17.234004 0.823421 161.619072 -87.683724 -149.124943 0.876652 2.999439 -2.818186 0.304734 3.011512 -5.329538 -0.260987 3.227184 -9.213996 -5.119680 5.919637 1.502955 -1.404709 -0.254531 2.617821 0.000000 0.000000 0.000000 1.888651 0.248336 -3.443221 -91.194942 -17.732574 30.394417 179.790377 -53.413197 179.900390 5.691847 -9.703172 -0.544281 -0.047851 1.127935 -0.000000 0.000000 0.000000 0.000000 0.000000 0.000000 0.000000 -14.501885 8.462219 -2.579478 53.552365 80.959695 -32.852054 -10.085495 15.255424 -0.140172 -11.798551 9.926163 -1.104808 0.015473 -0.702266 0.000000 0.000000 0.000000 0.000000 0.000000 0.000000 0.000000 
3.458717 17.232441 0.826291 161.364385 -87.637775 -148.984564 0.840821 2.684242 -2.912909 0.328506 2.694915 -5.243097 -0.310491 2.887456 -8.807526 -4.748804 5.931216 1.384882 -1.592371 -0.260807 2.567753 0.000000 0.000000 0.000000 2.161587 0.618682 -3.522157 -91.086288 -17.626614 30.040411 179.680690 -53.228037 179.899327 5.736047 -9.657303 -0.544970 -0.041320 1.120543 -0.000000 0.000000 0.000000 0.000000 0.000000 0.000000 0.000000 -13.137212 7.932739 -1.854082 59.296511 81.937102 -24.402705 -10.041460 17.453723 -0.146806 -11.532368 8.971309 -0.982349 -0.012899 -0.727576 -0.000000 0.000000 0.000000 0.000000 0.000000 0.000000 0.000000 
3.456249 17.231006 0.829192 161.114951 -87.663380 -148.903572 0.767728 2.475670 -3.086004 0.319014 2.487748 -5.198641 -0.418606 2.661795 -8.497903 -4.238928 5.913581 1.559272 -1.740162 -0.270812 2.605508 0.000000 0.000000 0.000000 2.437433 0.613249 -3.497056 -90.982188 -17.578713 29.730864 179.608614 -53.260333 179.897904 5.776914 -9.594047 -0.545219 -0.037190 1.122361 -0.000000 0.000000 0.000000 0.000000 0.000000 0.000000 0.000000 -11.889361 7.848468 -1.607828 61.785107 81.290595 -18.858716 -9.565912 20.135159 -0.150824 -11.365944 8.120468 -0.882969 -0.032066 -0.745828 -0.000000 0.000000 0.000000 0.000000 0.000000 0.000000 0.000000 
3.453883 17.229715 0.832081 160.879793 -87.716763 -148.850108 0.680471 2.312429 -3.275641 0.294993 2.327126 -5.179736 -0.556732 2.485953 -8.265115 -3.672699 5.851756 1.860979 -1.871889 -0.282427 2.681994 0.000000 0.000000 0.000000 2.711031 0.478621 -3.419097 -90.874343 -17.566760 29.459493 179.559238 -53.391763 179.896427 5.814631 -9.520879 -0.544855 -0.034413 1.127802 -0.000000 0.000000 0.000000 0.000000 0.000000 0.000000 0.000000 -10.696628 7.892736 -1.631294 62.755294 79.852630 -14.917788 -8.922329 23.282280 -0.153991 -11.285281 7.417575 -0.807077 -0.047182 -0.759937 -0.000000 0.000000 0.000000 0.000000 0.000000 0.000000 0.000000 
3.451482 17.228570 0.834858 160.654430 -87.780438 -148.807884 0.585924 2.167349 -3.469569 0.267338 2.185583 -5.168287 -0.697128 2.330995 -8.055298 -3.096172 5.744368 2.205647 -1.994674 -0.294293 2.771819 0.000000 0.000000 0.000000 2.969053 0.308936 -3.321626 -90.760960 -17.593203 29.217394 179.521688 -53.570491 179.895003 5.848318 -9.443125 -0.543888 -0.032179 1.134434 -0.000000 0.000000 0.000000 0.000000 0.000000 0.000000 0.000000 -9.543526 7.947292 -1.763573 63.097700 78.045199 -11.929657 -8.191310 26.866989 -0.156747 -11.271156 6.861255 -0.750986 -0.060077 -0.770425 -0.000000 0.000000 0.000000 0.000000 0.000000 0.000000 0.000000 
3.448969 17.227538 0.837499 160.421164 -87.849314 -148.753626 0.486527 2.030534 -3.663070 0.239712 2.053006 -5.155558 -0.831126 2.186123 -7.842359 -2.526485 5.587648 2.551710 -2.113254 -0.305832 2.862500 0.000000 0.000000 0.000000 3.209849 0.142637 -3.221124 -90.645502 -17.660916 29.004112 179.492153 -53.771417 179.893685 5.876950 -9.365375 -0.542521 -0.030206 1.141366 -0.000000 0.000000 0.000000 0.000000 0.000000 0.000000 0.000000 -8.417133 7.960941 -1.927892 63.217058 76.062852 -9.535697 -7.411556 30.829232 -0.159433 -11.335849 6.437479 -0.713099 -0.070447 -0.777305 -0.000000 0.000000 0.000000 0.000000 0.000000 0.000000 0.000000 
3.446237 17.226606 0.839944 160.168664 -87.922311 -148.671297 0.384752 1.898539 -3.852332 0.213579 1.925698 -5.138861 -0.955878 2.047529 -7.621256 -1.974913 5.389227 2.879036 -2.228010 -0.316669 2.948099 0.000000 0.000000 0.000000 3.433325 -0.005746 -3.124415 -90.530011 -17.764074 28.817407 179.469267 -53.980962 179.892517 5.899453 -9.291512 -0.540755 -0.028376 1.148211 -0.000000 0.000000 0.000000 0.000000 0.000000 0.000000 0.000000 -7.328818 7.920237 -2.091399 63.309681 73.981170 -7.549948 -6.608324 35.118185 -0.162069 -11.467047 6.124161 -0.689724 -0.078558 -0.780650 -0.000000 0.000000 0.000000 0.000000 0.000000 0.000000 0.000000 
3.443123 17.225744 0.842202 159.884880 -88.000272 -148.543458 0.282169 1.770729 -4.034700 0.188016 1.802665 -5.117857 -1.077066 1.914146 -7.393016 -1.439496 5.147247 3.175520 -2.342117 -0.326771 3.025061 0.000000 0.000000 0.000000 3.647799 -0.128036 -3.034783 -90.418589 -17.899293 28.658929 179.453906 -54.188846 179.891525 5.915515 -9.225324 -0.538793 -0.026796 1.154984 -0.000000 0.000000 0.000000 0.000000 0.000000 0.000000 0.000000 -6.269890 7.814327 -2.242442 63.450901 71.848125 -5.830369 -5.802866 39.646766 -0.164908 -11.679900 5.901557 -0.679567 -0.083654 -0.780805 -0.000000 0.000000 0.000000 0.000000 0.000000 0.000000 0.000000 
3.439495 17.224888 0.844266 159.557363 -88.082995 -148.354343 0.181397 1.647072 -4.208545 0.163260 1.683592 -5.094356 -1.195138 1.785799 -7.166518 -0.926329 4.880842 3.439264 -2.452674 -0.335961 3.092932 0.000000 0.000000 0.000000 3.854707 -0.227420 -2.951820 -90.311774 -18.051525 28.521153 179.445082 -54.385676 179.890698 5.925469 -9.169417 -0.536834 -0.025428 1.161677 -0.000000 0.000000 0.000000 0.000000 0.000000 0.000000 0.000000 -5.268009 7.660418 -2.378142 63.689698 69.661653 -4.326648 -5.009853 44.362236 -0.167523 -11.925028 5.747990 -0.677428 -0.086802 -0.778338 -0.000000 0.000000 0.000000 0.000000 0.000000 0.000000 0.000000 
3.435372 17.224040 0.846150 159.177061 -88.170590 -148.094045 0.083390 1.527789 -4.373033 0.137614 1.568351 -5.069301 -1.318311 1.662285 -6.945033 -0.426986 4.587459 3.667141 -2.562709 -0.344392 3.150795 0.000000 0.000000 0.000000 4.063405 -0.303288 -2.875863 -90.212146 -18.215498 28.402943 179.443974 -54.567980 179.890032 5.930327 -9.125635 -0.535077 -0.024461 1.168452 -0.000000 0.000000 0.000000 0.000000 0.000000 0.000000 0.000000 -4.309588 7.456915 -2.499211 64.024923 67.448371 -2.954535 -4.243711 49.166066 -0.170023 -12.205046 5.650420 -0.682610 -0.087413 -0.773993 -0.000000 0.000000 0.000000 0.000000 0.000000 0.000000 0.000000 
3.430700 17.223134 0.847867 158.739678 -88.262001 -147.756848 -0.009903 1.412821 -4.528359 0.110871 1.456636 -5.044364 -1.448651 1.543341 -6.734451 0.058442 4.279476 3.861663 -2.670759 -0.352068 3.199450 0.000000 0.000000 0.000000 4.278091 -0.360716 -2.805782 -90.120107 -18.378671 28.295956 179.449534 -54.728645 179.889497 5.931472 -9.094791 -0.533721 -0.023903 1.175389 -0.000000 0.000000 0.000000 0.000000 0.000000 0.000000 0.000000 -3.408417 7.219036 -2.607629 64.460825 65.208169 -1.684152 -3.514885 53.991590 -0.172078 -12.480645 5.596060 -0.691709 -0.086040 -0.768557 -0.000000 0.000000 0.000000 0.000000 0.000000 0.000000 0.000000 
3.425464 17.222154 0.849465 158.250667 -88.355551 -147.348306 -0.097961 1.301981 -4.675341 0.081996 1.348063 -5.020040 -1.591237 1.428529 -6.534971 0.536760 3.954593 4.023111 -2.778823 -0.359151 3.238979 0.000000 0.000000 0.000000 4.505107 -0.400555 -2.741567 -90.037024 -18.536491 28.196615 179.462148 -54.865726 179.889078 5.930848 -9.076684 -0.532962 -0.023914 1.182597 -0.000000 0.000000 0.000000 0.000000 0.000000 0.000000 0.000000 -2.553558 6.947108 -2.705010 64.982379 62.963593 -0.465628 -2.833225 58.757653 -0.173688 -12.743897 5.576226 -0.703725 -0.082446 -0.762719 -0.000000 0.000000 0.000000 0.000000 0.000000 0.000000 0.000000 
3.419709 17.221066 0.850981 157.714680 -88.449169 -146.874033 -0.179818 1.194805 -4.814553 0.050816 1.242039 -4.996674 -1.747868 1.317239 -6.346725 1.010982 3.615380 4.153601 -2.887167 -0.365739 3.270016 0.000000 0.000000 0.000000 4.747719 -0.424813 -2.682866 -89.963258 -18.682829 28.099199 179.481377 -54.977295 179.888744 5.930182 -9.069903 -0.532799 -0.024561 1.190084 -0.000000 0.000000 0.000000 0.000000 0.000000 0.000000 0.000000 -1.743390 6.646326 -2.792842 65.577788 60.727296 0.726635 -2.205986 63.404914 -0.174719 -12.973724 5.585314 -0.717250 -0.076842 -0.757083 -0.000000 0.000000 0.000000 0.000000 0.000000 0.000000 0.000000 
3.413465 17.219868 0.852454 157.152146 -88.539987 -146.355102 -0.254964 1.090734 -4.946932 0.017243 1.137950 -4.974171 -1.919700 1.208833 -6.167919 1.483937 3.261838 4.254610 -2.996376 -0.371930 3.293000 0.000000 0.000000 0.000000 5.007338 -0.433940 -2.629672 -89.898656 -18.815028 27.999856 179.507263 -55.064425 179.888491 5.931086 -9.072483 -0.533430 -0.025936 1.197819 -0.000000 0.000000 0.000000 0.000000 0.000000 0.000000 0.000000 -0.972536 6.318572 -2.872044 66.232344 58.515179 1.913570 -1.638862 67.883144 -0.175148 -13.160316 5.618877 -0.731383 -0.069308 -0.752099 -0.000000 0.000000 0.000000 0.000000 0.000000 0.000000 0.000000 
